<svg width="134" height="18" viewBox="0 0 134 18" fill="none" xmlns="http://www.w3.org/2000/svg">
<path d="M15.0942 8.46558V0.486079C15.0942 0.448094 15.0791 0.411606 15.0522 0.384725C15.0254 0.357844 14.9889 0.342773 14.9509 0.342773H13.8042C13.7661 0.342773 13.7297 0.357844 13.7028 0.384725C13.6759 0.411606 13.6608 0.448094 13.6608 0.486079V9.75561C13.6608 9.79368 13.6759 9.83017 13.7028 9.85705C13.7297 9.88393 13.7661 9.899 13.8042 9.899H19.729C19.767 9.899 19.8035 9.88393 19.8303 9.85705C19.8572 9.83017 19.8723 9.79368 19.8723 9.75561V8.60889C19.8723 8.57091 19.8572 8.53442 19.8303 8.50754C19.8035 8.48066 19.767 8.46558 19.729 8.46558H15.0942Z" fill="white"/>
<path d="M29.9027 0.342773H23.0222C22.9431 0.342773 22.8789 0.406935 22.8789 0.486079V1.63288C22.8789 1.71203 22.9431 1.77619 23.0222 1.77619H29.9027C29.9818 1.77619 30.046 1.71203 30.046 1.63288V0.486079C30.046 0.406935 29.9818 0.342773 29.9027 0.342773Z" fill="white"/>
<path d="M29.9027 8.46533H23.0222C22.9431 8.46533 22.8789 8.52949 22.8789 8.60873V9.75544C22.8789 9.83459 22.9431 9.89875 23.0222 9.89875H29.9027C29.9818 9.89875 30.046 9.83459 30.046 9.75544V8.60873C30.046 8.52949 29.9818 8.46533 29.9027 8.46533Z" fill="white"/>
<path d="M29.9027 4.39893H23.0222C22.9431 4.39893 22.8789 4.46309 22.8789 4.54223V5.68895C22.8789 5.76818 22.9431 5.83234 23.0222 5.83234H29.9027C29.9818 5.83234 30.046 5.76818 30.046 5.68895V4.54223C30.046 4.46309 29.9818 4.39893 29.9027 4.39893Z" fill="white"/>
<path d="M80.3508 0.342773H73.4703C73.3912 0.342773 73.3269 0.406935 73.3269 0.486079V1.63288C73.3269 1.71203 73.3912 1.77619 73.4703 1.77619H80.3508C80.4299 1.77619 80.4941 1.71203 80.4941 1.63288V0.486079C80.4941 0.406935 80.4299 0.342773 80.3508 0.342773Z" fill="white"/>
<path d="M80.3508 8.46533H73.4703C73.3912 8.46533 73.3269 8.52949 73.3269 8.60873V9.75544C73.3269 9.83459 73.3912 9.89875 73.4703 9.89875H80.3508C80.4299 9.89875 80.4941 9.83459 80.4941 9.75544V8.60873C80.4941 8.52949 80.4299 8.46533 80.3508 8.46533Z" fill="white"/>
<path d="M80.3508 4.39893H73.4703C73.3912 4.39893 73.3269 4.46309 73.3269 4.54223V5.68895C73.3269 5.76818 73.3912 5.83234 73.4703 5.83234H80.3508C80.4299 5.83234 80.4941 5.76818 80.4941 5.68895V4.54223C80.4941 4.46309 80.4299 4.39893 80.3508 4.39893Z" fill="white"/>
<path d="M52.6944 0.342773H51.5476C51.4685 0.342773 51.4043 0.406935 51.4043 0.486079V9.75561C51.4043 9.83484 51.4685 9.899 51.5476 9.899H52.6944C52.7736 9.899 52.8377 9.83484 52.8377 9.75561V0.486079C52.8377 0.406935 52.7736 0.342773 52.6944 0.342773Z" fill="white"/>
<path d="M49.8273 4.40559H46.1482V0.486079C46.1482 0.467307 46.1445 0.448622 46.1372 0.431259C46.13 0.413897 46.1194 0.398033 46.1061 0.384725C46.0928 0.371417 46.077 0.360929 46.0597 0.353702C46.0422 0.346475 46.0236 0.342773 46.0048 0.342773H44.8581C44.82 0.342773 44.7836 0.357844 44.7567 0.384725C44.7298 0.411606 44.7147 0.448094 44.7147 0.486079V4.40559H43.4246C43.3866 4.40559 43.3502 4.42075 43.3233 4.44763C43.2964 4.47451 43.2812 4.51091 43.2812 4.54898V5.6957C43.2812 5.73369 43.2964 5.77017 43.3233 5.79705C43.3502 5.82393 43.3866 5.83901 43.4246 5.83901H44.7147V9.75561C44.7147 9.79368 44.7298 9.83008 44.7567 9.85696C44.7836 9.88384 44.82 9.899 44.8581 9.899H46.0048C46.0236 9.899 46.0422 9.8953 46.0597 9.88807C46.077 9.88085 46.0928 9.87036 46.1061 9.85705C46.1194 9.84374 46.13 9.82788 46.1372 9.81052C46.1445 9.79315 46.1482 9.77447 46.1482 9.75561V5.83901H49.8273C49.8461 5.83901 49.8647 5.8353 49.8822 5.82817C49.8995 5.82094 49.9153 5.81036 49.9286 5.79705C49.9419 5.78375 49.9525 5.76797 49.9597 5.75052C49.9669 5.73316 49.9706 5.71456 49.9706 5.6957V4.54898C49.9706 4.53012 49.9669 4.51153 49.9597 4.49408C49.9525 4.47671 49.9419 4.46094 49.9286 4.44763C49.9153 4.43432 49.8995 4.42375 49.8822 4.41652C49.8647 4.40929 49.8461 4.40559 49.8273 4.40559Z" fill="white"/>
<path d="M8.38781 5.83231H9.97784C10.0158 5.83231 10.0523 5.81724 10.0792 5.79036C10.1061 5.76348 10.1211 5.72699 10.1211 5.689V4.5422C10.1211 4.50421 10.1061 4.46772 10.0792 4.44084C10.0523 4.41396 10.0158 4.39889 9.97784 4.39889H7.74963L5.99419 0.456203C5.97916 0.422447 5.95467 0.393715 5.92368 0.37362C5.8927 0.353526 5.85654 0.342773 5.81959 0.342773H4.38875C4.35181 0.342773 4.31565 0.353526 4.28466 0.37362C4.25367 0.393715 4.22919 0.422447 4.21415 0.456203L2.45876 4.39889H0.230501C0.192484 4.39889 0.156024 4.41396 0.129142 4.44084C0.10226 4.46772 0.0871582 4.50421 0.0871582 4.5422V5.689C0.0871582 5.72699 0.10226 5.76348 0.129142 5.79036C0.156024 5.81724 0.192484 5.83231 0.230501 5.83231H1.82053L0.0997275 9.69735C0.0900098 9.71912 0.0859011 9.74309 0.0877759 9.76689C0.0896511 9.79069 0.0974492 9.81369 0.110462 9.83369C0.123475 9.85379 0.141291 9.87018 0.162289 9.88164C0.183286 9.89301 0.2068 9.899 0.230692 9.899H1.51038C1.54732 9.899 1.58348 9.88825 1.61447 9.86815C1.64546 9.84806 1.66995 9.81933 1.68498 9.78557L5.10418 2.10599L8.52336 9.78557C8.53839 9.81933 8.56288 9.84806 8.59387 9.86815C8.62486 9.88825 8.66102 9.899 8.69798 9.899H9.97766C10.0015 9.899 10.0251 9.89301 10.0461 9.88164C10.0671 9.87018 10.0849 9.85379 10.0979 9.83369C10.1109 9.81369 10.1187 9.79069 10.1206 9.76689C10.1225 9.74309 10.1183 9.71921 10.1086 9.69735L8.38781 5.83231Z" fill="white"/>
<path d="M40.9186 2.45826C40.6534 1.83101 40.2092 1.29586 39.6416 0.919612C39.0739 0.543366 38.4081 0.342773 37.7271 0.342773H33.6895C33.6516 0.342773 33.6151 0.357844 33.5882 0.384725C33.5613 0.411606 33.5462 0.448094 33.5461 0.486079V1.63288C33.5461 1.67087 33.5613 1.70736 33.5882 1.73424C33.6151 1.76112 33.6516 1.77619 33.6895 1.77619H37.7271C37.9938 1.7761 38.2578 1.82863 38.5042 1.9306C38.7506 2.03266 38.9745 2.18222 39.1631 2.37083C39.3517 2.55935 39.5013 2.7833 39.6034 3.02973C39.7053 3.27606 39.7579 3.5402 39.7578 3.80689C39.7579 4.07359 39.7053 4.33773 39.6034 4.58415C39.5013 4.83057 39.3517 5.05443 39.1631 5.24304C38.9745 5.43165 38.7506 5.58121 38.5042 5.68318C38.2578 5.78524 37.9938 5.83768 37.7271 5.8376H33.6895C33.6516 5.8376 33.6151 5.85267 33.5882 5.87955C33.5613 5.90643 33.5462 5.94292 33.5461 5.9809V9.75561C33.5461 9.79368 33.5613 9.83008 33.5882 9.85705C33.6151 9.88393 33.6516 9.899 33.6895 9.899H34.8363C34.8551 9.899 34.8737 9.8953 34.8912 9.88807C34.9085 9.88085 34.9243 9.87036 34.9376 9.85705C34.9509 9.84374 34.9615 9.82788 34.9687 9.81052C34.9759 9.79315 34.9796 9.77447 34.9796 9.75561V7.27101H37.7271C38.182 7.2711 38.6325 7.18156 39.0528 7.00749C39.4731 6.83351 39.8551 6.57828 40.1768 6.25659C40.4984 5.9349 40.7536 5.55301 40.9277 5.1327C41.1016 4.71238 41.1912 4.26184 41.1911 3.80689C41.1915 3.34366 41.0989 2.88501 40.9186 2.45826Z" fill="white"/>
<path d="M91.0515 5.74426C91.4384 5.17227 91.6446 4.49743 91.6438 3.80698C91.6438 3.35203 91.5547 2.90149 91.3802 2.48118C91.2066 2.06078 90.951 1.67889 90.6293 1.3572C90.3076 1.03551 89.926 0.78036 89.5056 0.606295C89.0852 0.43223 88.6349 0.342685 88.1801 0.342861L84.1422 0.342773C84.1042 0.342773 84.0677 0.357932 84.0409 0.384813C84.014 0.411694 83.9989 0.448094 83.9989 0.486079V1.63288C83.9989 1.67087 84.014 1.70736 84.0409 1.73424C84.0677 1.76112 84.1042 1.77619 84.1422 1.77619H88.1801C88.4462 1.7761 88.7106 1.82863 88.9565 1.9306C89.2033 2.03266 89.4272 2.18222 89.6158 2.37083C89.8044 2.55935 89.9542 2.7833 90.0556 3.02973C90.1578 3.27615 90.2107 3.5402 90.2107 3.80689C90.2107 4.07359 90.1578 4.33773 90.0556 4.58415C89.9542 4.83057 89.8044 5.05443 89.6158 5.24304C89.4272 5.43165 89.2033 5.58121 88.9565 5.68327C88.7106 5.78524 88.4462 5.83768 88.1801 5.83768L84.1422 5.8376C84.1042 5.8376 84.0677 5.85275 84.0409 5.87964C84.014 5.90652 83.9989 5.94292 83.9989 5.9809V9.75561C83.9989 9.79368 84.014 9.83008 84.0409 9.85696C84.0677 9.88384 84.1042 9.899 84.1422 9.899H85.289C85.3078 9.899 85.3265 9.8953 85.3438 9.88807C85.3612 9.88085 85.3771 9.87036 85.3904 9.85705C85.4037 9.84374 85.4142 9.82788 85.4214 9.81052C85.4286 9.79315 85.4323 9.77447 85.4323 9.75561V7.2711L88.1801 7.27101C88.4198 7.27101 88.6587 7.24625 88.8931 7.19689L90.0591 9.81395C90.0697 9.83925 90.0882 9.86075 90.112 9.87591C90.1349 9.89098 90.1622 9.899 90.1895 9.899H91.5001C91.5239 9.899 91.5477 9.89301 91.5688 9.88164C91.59 9.87027 91.6076 9.85379 91.6208 9.83369C91.6332 9.81369 91.6411 9.79069 91.6429 9.76689C91.6455 9.74309 91.6411 9.71921 91.6314 9.69735L90.2459 6.58533C90.5597 6.3523 90.832 6.06798 91.0515 5.74426Z" fill="white"/>
<path d="M70.1772 0.342773H63.2966C63.2586 0.342773 63.2222 0.357844 63.1953 0.384725C63.1684 0.411606 63.1533 0.448094 63.1533 0.486079V1.63288C63.1533 1.67087 63.1684 1.70736 63.1953 1.73424C63.2222 1.76112 63.2586 1.77619 63.2966 1.77619H68.1902L66.2868 4.20508C66.2724 4.22342 66.2634 4.24545 66.2609 4.26863C66.2585 4.29181 66.2626 4.31516 66.2728 4.33614C66.283 4.35712 66.2989 4.37474 66.3187 4.38708C66.3384 4.39942 66.3612 4.40603 66.3845 4.40603H67.831C67.8744 4.40603 67.9173 4.39607 67.9564 4.37703C67.9955 4.358 68.0298 4.33032 68.0566 4.29613L70.2594 1.48517C70.299 1.43467 70.3205 1.37245 70.3205 1.30828V0.486079C70.3205 0.448094 70.3054 0.411606 70.2785 0.384725C70.2517 0.357844 70.2152 0.342773 70.1772 0.342773Z" fill="white"/>
<path d="M70.1772 8.465H64.7892L66.6898 6.03972C66.7042 6.02139 66.7131 5.99945 66.7155 5.97627C66.718 5.95309 66.7139 5.92973 66.7037 5.90876C66.6935 5.88778 66.6776 5.87015 66.6579 5.85782C66.6381 5.84548 66.6153 5.83887 66.592 5.83887H65.1456C65.1021 5.83887 65.0592 5.84883 65.0201 5.86778C64.981 5.88681 64.9468 5.91449 64.9199 5.94877L62.7365 8.73496C62.697 8.78537 62.6755 8.84768 62.6755 8.91176V9.75512C62.6755 9.7931 62.6906 9.82959 62.7175 9.85647C62.7444 9.88335 62.7809 9.89851 62.8188 9.89851H70.1772C70.2152 9.89851 70.2517 9.88335 70.2785 9.85647C70.3054 9.82959 70.3205 9.7931 70.3205 9.75512V8.6084C70.3205 8.57033 70.3054 8.53393 70.2785 8.50705C70.2517 8.48017 70.2152 8.465 70.1772 8.465Z" fill="white"/>
<path d="M101.988 5.82812C101.954 5.82839 101.921 5.84038 101.896 5.86223C101.87 5.884 101.852 5.91414 101.847 5.94746C101.806 6.17114 101.747 6.39086 101.667 6.60397C101.454 7.19782 101.063 7.71129 100.546 8.07405C100.037 8.42068 99.433 8.60277 98.8161 8.59581C98.401 8.59828 97.9894 8.51754 97.606 8.35846C97.0455 8.12208 96.5731 7.71561 96.2549 7.19641C96.0222 6.81303 95.8636 6.38936 95.7869 5.94728C95.7808 5.91414 95.764 5.884 95.7376 5.86223C95.712 5.84046 95.6794 5.82839 95.6459 5.82812H94.4825C94.4623 5.82812 94.442 5.83244 94.4235 5.84082C94.405 5.84928 94.3882 5.86162 94.375 5.87695C94.3609 5.89237 94.3512 5.91044 94.345 5.9301C94.3389 5.94966 94.338 5.97028 94.3406 5.99064C94.3944 6.372 94.4887 6.74657 94.6227 7.10757C94.9303 7.97067 95.4996 8.71611 96.2514 9.23989C97.0032 9.76367 97.9004 10.0396 98.8161 10.0292C99.4225 10.0316 100.023 9.91289 100.581 9.67995C101.416 9.3282 102.12 8.72431 102.594 7.95287C102.96 7.35408 103.198 6.68602 103.292 5.99073C103.295 5.97046 103.293 5.94975 103.287 5.93018C103.282 5.91053 103.271 5.89246 103.258 5.87704C103.245 5.86162 103.228 5.84928 103.21 5.8409C103.19 5.83244 103.17 5.82812 103.15 5.82812H101.988Z" fill="white"/>
<path d="M95.6432 4.39513C95.6767 4.39496 95.7093 4.38288 95.7358 4.36103C95.7613 4.33917 95.7781 4.30894 95.7842 4.27562C95.8248 4.04947 95.8847 3.82737 95.9649 3.61206C96.1782 3.01821 96.5695 2.50474 97.086 2.14198C97.5954 1.79535 98.2 1.61326 98.8161 1.62022C99.2312 1.61776 99.6428 1.69849 100.026 1.85757C100.587 2.09395 101.059 2.50042 101.377 3.01962C101.611 3.40503 101.77 3.83125 101.847 4.27571C101.852 4.30903 101.87 4.33917 101.895 4.36103C101.921 4.38279 101.954 4.39487 101.988 4.39513H103.151C103.171 4.39522 103.191 4.3909 103.21 4.38244C103.228 4.37407 103.245 4.36173 103.259 4.3464C103.272 4.33097 103.282 4.3129 103.288 4.29334C103.294 4.27377 103.296 4.25315 103.293 4.23288C103.24 3.84888 103.144 3.47184 103.009 3.10837C102.702 2.24536 102.133 1.49992 101.381 0.976139C100.629 0.452357 99.7327 0.176407 98.8161 0.186807C98.2106 0.184427 97.6095 0.303145 97.0507 0.536084C96.2161 0.887829 95.5119 1.49164 95.0377 2.26308C94.6711 2.86415 94.4331 3.53485 94.3388 4.2327C94.3362 4.25297 94.338 4.27368 94.3441 4.29325C94.3494 4.31282 94.36 4.33097 94.3732 4.34631C94.3864 4.36173 94.4032 4.37398 94.4217 4.38244C94.4411 4.3909 94.4613 4.39522 94.4816 4.39513H95.6432Z" fill="white"/>
<path d="M13.6608 17.7506H14.1191V16.3973H15.4505V16.0042H14.1191V15.0732H15.559V14.6777H13.6608V17.7506Z" fill="white"/>
<path d="M23.4718 14.7982C23.256 14.683 23.0153 14.6224 22.7708 14.6221C22.5262 14.6216 22.2853 14.6812 22.0691 14.7957C21.8587 14.9182 21.6908 15.1021 21.588 15.3227C21.3548 15.8928 21.3548 16.5316 21.588 17.1016C21.6914 17.3235 21.859 17.5092 22.0691 17.6346C22.282 17.7559 22.5237 17.8176 22.7686 17.8132C23.0144 17.8177 23.2568 17.7574 23.4718 17.6383C23.683 17.5149 23.8514 17.3297 23.9541 17.1076C24.1873 16.538 24.1873 15.8996 23.9541 15.3299C23.8512 15.1077 23.6829 14.9222 23.4718 14.7982ZM23.4162 17.0919C23.3375 17.1863 23.2388 17.2622 23.1275 17.3143C23.0161 17.3664 22.8947 17.3935 22.7716 17.3935C22.6487 17.3935 22.5272 17.3664 22.4158 17.3143C22.3044 17.2622 22.2059 17.1863 22.127 17.0919C21.9678 16.8909 21.8883 16.5991 21.8883 16.2163C21.8883 15.8385 21.9678 15.5467 22.127 15.3408C22.2046 15.2446 22.3028 15.1668 22.4142 15.1134C22.5257 15.06 22.6477 15.0322 22.7714 15.0321C22.895 15.032 23.0171 15.0595 23.1287 15.1127C23.2402 15.1659 23.3385 15.2435 23.4162 15.3397C23.5746 15.5447 23.6539 15.8352 23.6539 16.2115C23.6539 16.5974 23.5747 16.8909 23.4162 17.0919Z" fill="white"/>
<path d="M32.1195 16.6193C32.1195 16.8927 32.0511 17.0897 31.9145 17.2104C31.7603 17.3277 31.5721 17.3912 31.3784 17.3912C31.1847 17.3912 30.9964 17.3277 30.8423 17.2104C30.7049 17.0897 30.6361 16.8927 30.6361 16.6193V14.6777H30.1778V16.6193C30.1706 16.8457 30.2208 17.0701 30.3238 17.2718C30.4175 17.446 30.5628 17.5871 30.7398 17.6758C30.9409 17.7664 31.159 17.8133 31.3796 17.8133C31.6002 17.8133 31.8183 17.7664 32.0194 17.6758C32.1956 17.587 32.3402 17.4459 32.4331 17.2718C32.5351 17.0699 32.5849 16.8455 32.5778 16.6193V14.6777H32.1195V16.6193Z" fill="white"/>
<path d="M40.7759 17.0027L39.3239 14.6777H38.8004V17.7506H39.2587V15.3768L40.7469 17.7506H41.2342V14.6777H40.7759V17.0027Z" fill="white"/>
<path d="M49.2471 14.867C48.9961 14.736 48.716 14.6709 48.433 14.6777H47.4923V17.7506H48.433C48.7161 17.7575 48.9963 17.6919 49.2471 17.5602C49.4742 17.4367 49.6612 17.2509 49.7861 17.0246C49.913 16.7729 49.9791 16.4949 49.9791 16.213C49.9791 15.9311 49.913 15.6531 49.7861 15.4014C49.6614 15.1753 49.4743 14.9898 49.2471 14.867ZM49.3592 16.7954C49.2784 16.9611 49.1526 17.1007 48.9961 17.1983C48.8262 17.2999 48.6309 17.3509 48.433 17.3454H47.9506V15.0901H48.433C48.6306 15.0847 48.8257 15.1348 48.9961 15.2348C49.1525 15.3309 49.2784 15.4694 49.3592 15.6341C49.4434 15.8161 49.4871 16.0142 49.4871 16.2148C49.4871 16.4153 49.4434 16.6134 49.3592 16.7954Z" fill="white"/>
<path d="M56.7057 14.6777L55.6541 17.7505H56.1365L56.3849 17.0173H57.5716L57.8104 17.7505H58.2928L57.2726 14.6777H56.7057ZM56.5007 16.6652L56.9807 15.23L57.4583 16.6652H56.5007Z" fill="white"/>
<path d="M63.5844 15.0732H64.5661V17.7506H65.0243V15.0732H66.0061V14.6777H63.5844V15.0732Z" fill="white"/>
<path d="M72.3906 14.6777H71.9323V17.7505H72.3906V14.6777Z" fill="white"/>
<path d="M80.5464 14.7982C80.3306 14.683 80.0899 14.6224 79.8454 14.6221C79.6009 14.6216 79.3599 14.6812 79.1438 14.7957C78.9333 14.9182 78.7654 15.1021 78.6625 15.3227C78.4294 15.8928 78.4294 16.5316 78.6625 17.1016C78.766 17.3235 78.9336 17.5092 79.1438 17.6346C79.3567 17.756 79.5983 17.8176 79.8433 17.8132C80.089 17.8177 80.3314 17.7574 80.5464 17.6383C80.7576 17.5149 80.926 17.3296 81.0287 17.1076C81.2619 16.538 81.2619 15.8996 81.0287 15.3299C80.9258 15.1077 80.7576 14.9222 80.5464 14.7982ZM80.4909 17.0919C80.4121 17.1863 80.3134 17.2622 80.202 17.3143C80.0907 17.3664 79.9693 17.3935 79.8462 17.3935C79.7233 17.3935 79.6018 17.3664 79.4904 17.3143C79.379 17.2622 79.2805 17.1863 79.2016 17.0919C79.0425 16.8909 78.9629 16.5991 78.9629 16.2163C78.9629 15.8385 79.0425 15.5467 79.2016 15.3408C79.2792 15.2446 79.3773 15.1668 79.4889 15.1134C79.6003 15.06 79.7223 15.0322 79.846 15.0321C79.9696 15.032 80.0917 15.0595 80.2033 15.1127C80.3148 15.1659 80.4131 15.2435 80.4909 15.3397C80.6492 15.5447 80.7285 15.8352 80.7285 16.2115C80.7285 16.5974 80.6493 16.8909 80.4909 17.0919Z" fill="white"/>
<path d="M89.2632 14.6777V17.0027L87.8107 14.6777H87.2874V17.7506H87.7456V15.3768L89.2342 17.7506H89.7215V14.6777H89.2632Z" fill="white"/>
</svg>
