<svg width="203" height="46" viewBox="0 0 103 16" fill="none" xmlns="http://www.w3.org/2000/svg">
<g id="CardinalsLogo">
<path id="Vector" d="M37.2121 9.6623C38.423 9.0471 39.3278 7.91731 39.6414 6.56231C39.6414 6.56081 39.6414 6.55781 39.6429 6.55631C39.8609 5.62661 39.7679 4.56951 39.3983 3.71141C39.3983 3.70991 39.3968 3.70841 39.3953 3.70541C38.6909 2.00811 36.9643 0.844907 35.1084 0.860507H28.0562V15.8593H31.1322V11.883L34.3042 10.7442L37.023 15.8593H40.5072L37.2286 9.69381L37.2121 9.6623ZM36.3913 6.55631C36.3898 6.55781 36.3898 6.56081 36.3868 6.56231C36.1921 6.87551 35.912 7.11301 35.5706 7.23311L31.1322 8.84911V3.70541L35.1084 3.71141C36.4276 3.70571 37.1136 5.45451 36.3913 6.55631Z" fill="white"/>
<path id="Vector_2" d="M0.933627 3.70574C0.932125 3.70724 0.930622 3.70874 0.929122 3.71174C0.405455 4.54604 0.0798547 5.51534 0.0153341 6.55664V6.56264C-0.00580392 7.09644 -0.00391706 9.61834 0.0138317 10.1532C0.0138317 10.1562 0.0138317 10.1607 0.0153341 10.1637C0.0783523 11.2021 0.40245 12.1714 0.923122 13.0042C0.924624 13.0086 0.927618 13.0117 0.92912 13.0147C1.98091 14.6915 3.79684 15.7732 5.80718 15.8596H10.3497L10.9539 13.0147H6.08027C5.96023 13.0147 5.84169 13.0117 5.72315 13.0042H5.85069C4.41474 12.8886 3.26387 11.6867 3.10032 10.1637L3.07931 9.71364V7.00674L3.10032 6.55664C3.27587 4.95564 4.54228 3.71174 6.08027 3.71174L11.557 3.70614V0.860842H6.08027C3.96471 0.859242 2.03877 1.95134 0.933627 3.70574Z" fill="white"/>
<path id="Vector_3" d="M60.3255 0.861328H57.2495V15.86H60.3255V0.861328Z" fill="white"/>
<path id="Vector_4" d="M54.6956 6.55713C54.6311 5.51573 54.304 4.54643 53.7803 3.71223C53.7803 3.70923 53.7788 3.70773 53.7773 3.70623C52.6719 1.95163 50.7464 0.85983 48.6307 0.86133H42.5537V15.86H48.9038C50.913 15.7739 52.7286 14.6923 53.7803 13.0151C53.7833 13.0121 53.7848 13.0091 53.7878 13.0046C54.3085 12.1719 54.6326 11.2026 54.6956 10.1642C54.6971 10.1612 54.6971 10.1567 54.6971 10.1537C54.7149 9.61883 54.7167 7.09733 54.6956 6.56313V6.55713ZM51.6316 9.71413L51.6106 10.1642C51.4471 11.6872 50.2947 12.8876 48.8617 13.0046H48.9878C48.9221 13.0248 45.8079 13.0116 45.6297 13.0151V3.71223H48.6307C50.1672 3.71223 51.4351 4.95613 51.6106 6.55713L51.6316 7.00723V9.71413Z" fill="white"/>
<path id="Vector_5" d="M22.4502 0.861328H16.2674C15.9838 0.861328 15.7389 1.05983 15.6802 1.33733L12.6074 15.86H15.7524L16.3271 13.0151L16.3286 13.0046H22.389L22.3905 13.0151L22.9652 15.86H26.1087L23.0374 1.33733C22.9787 1.05983 22.7338 0.861328 22.4502 0.861328ZM16.9018 10.1642L16.9048 10.1537L18.2057 3.71223L18.2072 3.70623H20.5104L20.5119 3.71223L21.8128 10.1537L21.8143 10.1642H16.9018Z" fill="white"/>
<path id="Vector_6" d="M96.7032 13.0149V0.860988C95.7444 0.859488 94.7165 0.859488 93.6272 0.860988V15.2596C93.6272 15.5911 93.8959 15.8598 94.2274 15.8598H101.728L102.33 13.0149V13.0134C100.909 13.0149 99.0019 13.0149 96.7032 13.0149Z" fill="white"/>
<path id="Vector_7" d="M88.2356 0.861328H82.0528C81.7692 0.861328 81.5244 1.05983 81.4656 1.33723C80.9174 3.91933 78.3928 15.86 78.3928 15.86H81.5378L82.1125 13.0151H88.176L88.7506 15.86H91.8941C91.8941 15.86 89.3729 3.92403 88.8228 1.33723C88.7641 1.05983 88.5192 0.861328 88.2356 0.861328ZM82.6872 10.1642L82.6902 10.1537C83.0126 8.55553 83.6727 5.28623 83.9926 3.70473H86.2958C86.613 5.28103 87.2761 8.56263 87.5983 10.1537L87.5998 10.1642H82.6872Z" fill="white"/>
<path id="Vector_8" d="M74.4269 0.861328L72.6714 9.16343C72.6714 9.16343 66.999 1.40593 66.7803 1.10723C66.6672 0.952629 66.4872 0.861328 66.2958 0.861328H63.0578L65.1375 3.70473H65.1389V3.70773L65.142 3.71223H65.1375C64.8036 5.28893 62.5686 15.86 62.5686 15.86H65.7121L67.5772 7.04323C67.5772 7.04323 73.8366 15.5976 73.845 15.6141C73.958 15.7687 74.138 15.86 74.3295 15.86H77.5674L75.1096 12.499C75.1096 12.499 76.9913 3.60463 77.5719 0.861328H74.4269Z" fill="white"/>
</g>
</svg>
