<svg width="250" height="24" viewBox="0 0 250 24" fill="none" xmlns="http://www.w3.org/2000/svg">
<path d="M36.3357 20.0483V0.724332C36.3357 0.632268 36.2991 0.543972 36.2339 0.478869C36.1687 0.413767 36.0804 0.377197 35.9885 0.377197H33.2114C33.1193 0.377197 33.031 0.413767 32.9659 0.478869C32.9008 0.543972 32.8643 0.632268 32.8643 0.724332V23.1725C32.8643 23.2646 32.9008 23.3529 32.9659 23.418C33.031 23.4831 33.1193 23.5197 33.2114 23.5197H47.5599C47.6518 23.5197 47.7401 23.4831 47.8053 23.418C47.8705 23.3529 47.9068 23.2646 47.9068 23.1725V20.3954C47.9068 20.3034 47.8705 20.2151 47.8053 20.15C47.7401 20.0849 47.6518 20.0483 47.5599 20.0483H36.3357Z" fill="white"/>
<path d="M72.2066 0.377197H55.5438C55.3522 0.377197 55.1969 0.532615 55.1969 0.724332V3.50143C55.1969 3.69314 55.3522 3.84855 55.5438 3.84855H72.2066C72.3982 3.84855 72.5534 3.69314 72.5534 3.50143V0.724332C72.5534 0.532615 72.3982 0.377197 72.2066 0.377197Z" fill="white"/>
<path d="M72.2066 20.0483H55.5438C55.3522 20.0483 55.1969 20.2038 55.1969 20.3955V23.1726C55.1969 23.3643 55.3522 23.5197 55.5438 23.5197H72.2066C72.3982 23.5197 72.5534 23.3643 72.5534 23.1726V20.3955C72.5534 20.2038 72.3982 20.0483 72.2066 20.0483Z" fill="white"/>
<path d="M72.2066 10.1987H55.5438C55.3522 10.1987 55.1969 10.3541 55.1969 10.5459V13.323C55.1969 13.5147 55.3522 13.6701 55.5438 13.6701H72.2066C72.3982 13.6701 72.5534 13.5147 72.5534 13.323V10.5459C72.5534 10.3541 72.3982 10.1987 72.2066 10.1987Z" fill="white"/>
<path d="M194.378 0.377197H177.716C177.524 0.377197 177.368 0.532615 177.368 0.724332V3.50143C177.368 3.69314 177.524 3.84855 177.716 3.84855H194.378C194.57 3.84855 194.725 3.69314 194.725 3.50143V0.724332C194.725 0.532615 194.57 0.377197 194.378 0.377197Z" fill="white"/>
<path d="M194.378 20.0483H177.716C177.524 20.0483 177.368 20.2038 177.368 20.3955V23.1726C177.368 23.3643 177.524 23.5197 177.716 23.5197H194.378C194.57 23.5197 194.725 23.3643 194.725 23.1726V20.3955C194.725 20.2038 194.57 20.0483 194.378 20.0483Z" fill="white"/>
<path d="M194.378 10.1987H177.716C177.524 10.1987 177.368 10.3541 177.368 10.5459V13.323C177.368 13.5147 177.524 13.6701 177.716 13.6701H194.378C194.57 13.6701 194.725 13.5147 194.725 13.323V10.5459C194.725 10.3541 194.57 10.1987 194.378 10.1987Z" fill="white"/>
<path d="M127.401 0.377197H124.624C124.433 0.377197 124.277 0.532615 124.277 0.724332V23.1725C124.277 23.3643 124.433 23.5197 124.624 23.5197H127.401C127.593 23.5197 127.748 23.3643 127.748 23.1725V0.724332C127.748 0.532615 127.593 0.377197 127.401 0.377197Z" fill="white"/>
<path d="M120.459 10.2174H111.549V0.72897C111.549 0.636906 111.512 0.54861 111.447 0.483508C111.382 0.418406 111.294 0.381836 111.202 0.381836H108.424C108.332 0.381836 108.244 0.418406 108.179 0.483508C108.114 0.54861 108.077 0.636906 108.077 0.72897V10.2174H104.953C104.862 10.2174 104.774 10.2533 104.709 10.3174C104.644 10.3815 104.607 10.4686 104.606 10.5599V13.337C104.606 13.4291 104.643 13.5173 104.707 13.5824C104.773 13.6475 104.861 13.6841 104.953 13.6841H108.077V23.1725C108.077 23.2646 108.114 23.3529 108.179 23.418C108.244 23.4831 108.332 23.5197 108.424 23.5197H111.202C111.294 23.5197 111.382 23.4831 111.447 23.418C111.512 23.3529 111.549 23.2646 111.549 23.1725V13.6841H120.459C120.55 13.6841 120.639 13.6475 120.704 13.5824C120.769 13.5173 120.806 13.4291 120.806 13.337V10.5599C120.804 10.4686 120.767 10.3815 120.702 10.3174C120.637 10.2533 120.55 10.2174 120.459 10.2174Z" fill="white"/>
<path d="M20.1035 13.6725H23.9544C24.0445 13.6726 24.1311 13.6376 24.1959 13.575C24.2607 13.5124 24.2986 13.427 24.3016 13.337V10.5599C24.3016 10.4678 24.265 10.3795 24.1999 10.3144C24.1348 10.2493 24.0465 10.2128 23.9544 10.2128H18.5576L14.3063 0.652591C14.2703 0.571307 14.2117 0.502113 14.1374 0.453275C14.0631 0.404437 13.9763 0.378027 13.8875 0.377197H10.4161C10.3268 0.377582 10.2395 0.403785 10.1648 0.452648C10.09 0.501515 10.031 0.570951 9.99489 0.652591L5.74592 10.2012H0.3491C0.302523 10.2012 0.256417 10.2105 0.213528 10.2287C0.170639 10.2468 0.131845 10.2734 0.0994542 10.3069C0.0670633 10.3404 0.041739 10.38 0.0249903 10.4235C0.00824149 10.467 0.000410372 10.5133 0.00196294 10.5599V13.337C0.00196294 13.4291 0.038536 13.5173 0.103637 13.5824C0.168738 13.6475 0.257033 13.6841 0.3491 13.6841H4.20001L0.0343623 23.0429C0.0133751 23.0951 0.00535145 23.1515 0.0109792 23.2074C0.0166068 23.2633 0.0357175 23.317 0.0666716 23.3639C0.0976255 23.4108 0.139497 23.4494 0.188691 23.4766C0.237884 23.5037 0.29293 23.5185 0.3491 23.5197H3.44788C3.53756 23.5197 3.62534 23.4937 3.70051 23.4448C3.77569 23.3959 3.83505 23.3263 3.87138 23.2443L12.1518 4.64697L20.4321 23.2443C20.4685 23.3263 20.5278 23.3959 20.603 23.4448C20.6782 23.4937 20.766 23.5197 20.8556 23.5197H23.9544C24.0123 23.5197 24.0692 23.5052 24.12 23.4776C24.1709 23.45 24.214 23.4101 24.2455 23.3616C24.277 23.313 24.2959 23.2575 24.3004 23.1998C24.3049 23.1421 24.295 23.0842 24.2715 23.0314L20.1035 13.6725Z" fill="white"/>
<path d="M98.8853 5.50095C98.2421 3.98235 97.1663 2.68664 95.7917 1.77548C94.4171 0.864312 92.8045 0.377999 91.1557 0.377197H81.3777C81.2859 0.377197 81.1975 0.413767 81.1324 0.478869C81.0672 0.543972 81.0309 0.632268 81.0309 0.724332V3.50143C81.0309 3.5935 81.0672 3.68178 81.1324 3.74688C81.1975 3.81198 81.2859 3.84855 81.3777 3.84855H91.1557C91.8131 3.84659 92.4641 3.97807 93.0695 4.23505C93.9477 4.60734 94.6995 5.22631 95.2333 6.01704C95.7842 6.82778 96.0769 7.78616 96.0734 8.76635C96.0741 9.42378 95.9427 10.0747 95.687 10.6802C95.313 11.559 94.6934 12.3112 93.9025 12.8464C93.0919 13.395 92.1347 13.687 91.1557 13.6841H81.3777C81.2859 13.6841 81.1975 13.7207 81.1324 13.7858C81.0672 13.8509 81.0309 13.9392 81.0309 14.0313V23.1725C81.0309 23.2646 81.0672 23.3529 81.1324 23.418C81.1975 23.4831 81.2859 23.5197 81.3777 23.5197H84.1551C84.247 23.5197 84.3353 23.4831 84.4005 23.418C84.4657 23.3529 84.502 23.2646 84.502 23.1725V17.1555H91.1557C93.3804 17.1549 95.5139 16.2708 97.0869 14.6977C98.6602 13.1245 99.5441 10.9911 99.5448 8.76635C99.5448 7.64479 99.3208 6.53451 98.8853 5.50095Z" fill="white"/>
<path d="M220.293 13.4573C221.229 12.0721 221.728 10.4381 221.725 8.76635C221.726 7.66459 221.509 6.57354 221.087 5.55561C220.666 4.53764 220.048 3.6127 219.269 2.83364C218.49 2.05458 217.565 1.43665 216.547 1.01516C215.529 0.593675 214.438 0.376891 213.336 0.377198H203.558C203.467 0.377198 203.378 0.413767 203.313 0.47887C203.248 0.543972 203.212 0.632268 203.212 0.724332V3.50143C203.212 3.5935 203.248 3.68178 203.313 3.74688C203.378 3.81198 203.467 3.84855 203.558 3.84855H213.336C213.994 3.84659 214.645 3.97807 215.25 4.23505C216.142 4.6099 216.904 5.23998 217.439 6.04613C217.974 6.85231 218.259 7.79867 218.259 8.76635C218.26 9.42364 218.13 10.0745 217.874 10.6802C217.5 11.5585 216.88 12.3105 216.09 12.8464C215.279 13.3951 214.321 13.687 213.341 13.6841H203.558C203.467 13.6841 203.378 13.7207 203.313 13.7858C203.248 13.8509 203.212 13.9392 203.212 14.0313V23.1726C203.212 23.2646 203.248 23.3529 203.313 23.418C203.378 23.4831 203.467 23.5197 203.558 23.5197H206.336C206.428 23.5197 206.516 23.4831 206.581 23.418C206.646 23.3529 206.683 23.2646 206.683 23.1726V17.1555H213.336C213.917 17.1557 214.497 17.0952 215.065 16.975L217.888 23.3137C217.915 23.3752 217.96 23.4274 218.016 23.464C218.072 23.5006 218.138 23.5199 218.206 23.5197H221.378C221.436 23.5197 221.493 23.5052 221.544 23.4776C221.595 23.45 221.638 23.4101 221.669 23.3616C221.701 23.313 221.72 23.2575 221.724 23.1998C221.729 23.1421 221.719 23.0842 221.695 23.0314L218.34 15.4962C219.1 14.9306 219.76 14.2414 220.293 13.4573Z" fill="white"/>
<path d="M169.741 0.377146H153.078C152.986 0.377146 152.898 0.41372 152.832 0.478818C152.767 0.54392 152.731 0.632217 152.731 0.724281V3.50138C152.731 3.59345 152.767 3.68174 152.832 3.74683C152.898 3.81193 152.986 3.84851 153.078 3.84851H164.927L160.319 9.73135C160.285 9.77537 160.263 9.82814 160.257 9.8837C160.251 9.93925 160.261 9.99541 160.285 10.0459C160.309 10.0963 160.346 10.1391 160.393 10.1694C160.44 10.1997 160.495 10.2163 160.551 10.2173H164.059C164.164 10.2173 164.268 10.1933 164.363 10.1472C164.457 10.1011 164.54 10.0341 164.605 9.95118L169.928 3.14267C170.032 3.02364 170.092 2.87259 170.099 2.71454V0.724281C170.099 0.677704 170.09 0.6316 170.072 0.588709C170.054 0.545822 170.027 0.507026 169.993 0.474637C169.96 0.442245 169.92 0.416921 169.877 0.400173C169.834 0.383424 169.787 0.375593 169.741 0.377146Z" fill="white"/>
<path d="M169.741 20.0483H156.693L161.305 14.1747C161.339 14.1307 161.361 14.0779 161.367 14.0224C161.373 13.9668 161.364 13.9107 161.34 13.8602C161.315 13.8097 161.278 13.767 161.231 13.7367C161.184 13.7064 161.13 13.6898 161.074 13.6887H157.556C157.45 13.6884 157.346 13.7123 157.251 13.7584C157.156 13.8045 157.073 13.8717 157.008 13.9549L151.722 20.7009C151.626 20.823 151.574 20.9738 151.573 21.1291V23.1725C151.573 23.2646 151.61 23.3529 151.675 23.418C151.741 23.4831 151.829 23.5196 151.921 23.5196H169.741C169.832 23.5196 169.921 23.4831 169.986 23.418C170.051 23.3529 170.087 23.2646 170.087 23.1725V20.3954C170.087 20.3498 170.079 20.3047 170.061 20.2626C170.044 20.2205 170.018 20.1822 169.986 20.15C169.954 20.1177 169.915 20.0921 169.873 20.0747C169.831 20.0573 169.786 20.0483 169.741 20.0483Z" fill="white"/>
<path d="M246.777 13.6633C246.695 13.6637 246.616 13.6929 246.553 13.7458C246.491 13.7987 246.449 13.8719 246.434 13.9526C246.337 14.4944 246.191 15.0265 246 15.5425C245.484 16.9805 244.535 18.2238 243.285 19.1018C242.051 19.9417 240.589 20.3827 239.096 20.3654C238.09 20.3712 237.093 20.1761 236.164 19.7914C234.806 19.2189 233.663 18.2346 232.894 16.9773C232.329 16.0493 231.945 15.0231 231.76 13.9526C231.746 13.8719 231.704 13.7987 231.641 13.7458C231.579 13.6929 231.5 13.6637 231.418 13.6633H228.601C228.552 13.6632 228.502 13.6737 228.457 13.6941C228.412 13.7145 228.372 13.7444 228.339 13.7816C228.307 13.8189 228.282 13.8628 228.268 13.9102C228.254 13.9577 228.25 14.0076 228.256 14.0567C228.391 14.9807 228.623 15.8877 228.95 16.7621C229.695 18.8526 231.074 20.6583 232.894 21.9268C234.715 23.1952 236.887 23.863 239.106 23.8367C240.572 23.8418 242.025 23.5546 243.38 22.9921C245.401 22.1389 247.106 20.6761 248.256 18.8079C249.141 17.3579 249.716 15.7401 249.945 14.0567C249.952 14.0076 249.948 13.9577 249.934 13.9102C249.919 13.8628 249.895 13.8189 249.862 13.7816C249.83 13.7444 249.789 13.7145 249.744 13.6941C249.699 13.6737 249.65 13.6632 249.6 13.6633H246.777Z" fill="white"/>
<path d="M231.41 10.1919C231.493 10.1919 231.572 10.1629 231.635 10.11C231.698 10.057 231.74 9.98354 231.753 9.90259C231.851 9.35071 231.997 8.80859 232.19 8.28264C232.707 6.85026 233.653 5.61167 234.898 4.73491C236.134 3.89632 237.596 3.45544 239.089 3.47131C240.094 3.46549 241.091 3.66064 242.019 4.04525C243.379 4.6165 244.526 5.59992 245.298 6.85706C245.865 7.79123 246.25 8.82362 246.434 9.90028C246.449 9.98101 246.491 10.0542 246.553 10.1071C246.616 10.16 246.695 10.1892 246.777 10.1896H249.591C249.641 10.1896 249.69 10.1791 249.735 10.1587C249.781 10.1383 249.821 10.1085 249.854 10.0713C249.887 10.0341 249.911 9.9903 249.926 9.94287C249.94 9.8954 249.945 9.8454 249.938 9.79615C249.805 8.86589 249.573 7.95266 249.244 7.0723C248.477 4.97123 247.083 3.15673 245.25 1.87448C243.436 0.635742 241.286 -0.0191071 239.089 -0.00237264C237.624 -0.00831756 236.173 0.278066 234.819 0.840012C232.797 1.69283 231.093 3.15766 229.946 5.02881C229.056 6.48381 228.48 8.10825 228.254 9.79846C228.247 9.84757 228.251 9.89754 228.266 9.94501C228.28 9.99244 228.304 10.0363 228.337 10.0736C228.37 10.1108 228.41 10.1407 228.455 10.1611C228.5 10.1815 228.549 10.192 228.599 10.1919H231.41Z" fill="white"/>
</svg>
